<?xml version="1.0" encoding="UTF-8" standalone="no"?>
<!DOCTYPE svg PUBLIC "-//W3C//DTD SVG 1.1//EN" "http://www.w3.org/Graphics/SVG/1.1/DTD/svg11.dtd">
<svg width="100%" height="100%" viewBox="0 0 24 24" version="1.1" xmlns="http://www.w3.org/2000/svg" xmlns:xlink="http://www.w3.org/1999/xlink" xml:space="preserve" xmlns:serif="http://www.serif.com/" style="fill-rule:evenodd;clip-rule:evenodd;stroke-linejoin:round;stroke-miterlimit:2;">
    <path d="M24,3.578C24,1.589 22.385,-0.025 20.396,-0.025L3.578,-0.025C1.589,-0.025 -0.025,1.589 -0.025,3.578L-0.025,20.396C-0.025,22.385 1.589,24 3.578,24L20.396,24C22.385,24 24,22.385 24,20.396L24,3.578Z" style="fill:rgb(255,187,17);"/>
    <g transform="matrix(0.630737,0,0,0.630737,3.16968,5.06189)">
        <path d="M12.35,10L15.652,10C17.36,10 18.282,12.004 17.17,13.302L15.552,15.189C15.893,17.37 17.791,18.995 19.999,18.995C22.466,18.995 24.497,16.967 24.5,14.5C24.5,13.677 25.177,13 26,13C26.823,13 27.5,13.677 27.5,14.5C27.5,18.614 24.114,22 20,22C17.641,22 15.415,20.887 14,19C12.585,20.887 10.359,22 8,22C3.886,22 0.5,18.614 0.5,14.5C0.5,13.677 1.177,13 2,13C2.823,13 3.5,13.677 3.5,14.5C3.5,14.502 3.5,14.505 3.5,14.507C3.5,16.976 5.531,19.007 8,19.007C10.212,19.007 12.113,17.376 12.448,15.189L10.83,13.302C9.718,12.004 10.64,10 12.35,10Z" style="fill:rgb(118,71,1);"/>
        <circle cx="21" cy="3" r="3" style="fill:rgb(118,71,1);"/>
        <circle cx="7" cy="3" r="3" style="fill:rgb(118,71,1);"/>
    </g>
</svg>
